<svg xmlns="http://www.w3.org/2000/svg" xml:space="preserve" width="308" height="304" data-id="lg_TwCUIFuu254EhRvcb5" data-version="1" viewBox="0 0 2000 1500"><path fill="#ff2149" stroke="transparent" d="M0 0h2000v1500H0z"/><g data-padding="20"><g transform="translate(-992.397 -730.322)scale(1.90852)"><rect width="387.214" height="559.35" x="656.014" y="215.465" fill="none" rx="0" ry="0" transform="translate(194.33 280.5)"/><path fill="#fff" d="M1204.391 878.07q-1.45 12.58-4.12 24.68-2.66 12.1-6.53 21.54-3.87 9.43-9.92 15-6.05 5.56-13.79 5.56-7.75 0-14.04-11.85-6.29-11.86-11.86-31.46-5.56-19.6-10.16-44.28t-8.23-50.09-6.05-49.61-3.87-42.1q-2.9 18.39-6.77 41.13-3.87 22.75-9.2 46.22-5.32 23.47-11.61 45.98-6.29 22.5-13.55 40.17-7.26 17.66-15.49 28.31t-17.42 10.65q-8.23 0-16.46-11.13-8.23-11.14-15.97-29.28-7.74-18.15-14.52-40.42-6.77-22.26-12.58-44.76-5.81-22.51-10.16-42.59-4.36-20.08-6.78-33.64 0 10.17-.24 22.51t-.24 17.66q0 2.42-.25 15.97-.24 13.56-1.69 32.43t-4.35 40.41q-2.91 21.54-8.47 39.93-5.57 18.39-13.8 30.97-8.22 12.58-20.32 13.55-9.68-4.35-16.22-14.76-6.53-10.4-10.89-24.44-4.35-14.03-6.77-30.01-2.42-15.97-3.87-31.21-1.45-15.25-1.7-28.31-.24-13.07-.24-21.3 0-14.52 1.7-36.54 1.69-22.02 5.56-46.21 3.87-24.2 10.16-48.4 6.3-24.2 15.25-43.31 8.95-19.12 20.81-31.22t27.34-12.1q7.26 0 15.49 8.23t16.45 21.54q8.23 13.3 15.98 29.76 7.74 16.45 14.76 33.15 7.01 16.7 12.34 31.94 5.32 15.25 8.71 25.89 3.87-11.61 9.68-27.1t12.82-32.18q7.02-16.7 15.49-32.91t17.66-29.04q9.2-12.82 18.64-20.81 9.43-7.98 19.11-7.98 16.94 0 29.04 12.58t20.33 32.67q8.22 20.08 13.06 45 4.84 24.93 7.5 49.37 2.67 24.44 3.39 45.73.73 21.3.73 34.36v14.52q0 9.2-.24 20.81-.25 11.62-1.21 24.68-.97 13.07-2.42 26.14"/></g><path fill="transparent" stroke="transparent" stroke-width="2.013" d="M610.577 187.5h778.846v1125H610.577z"/></g></svg>